<svg width="100" height="100" viewBox="0 0 100 100" fill="none" xmlns="http://www.w3.org/2000/svg">
  <circle cx="50" cy="50" r="50" fill="#FFCC00" />
  <path
    d="M37.6332 47.6334C37.3297 47.9504 37.0918 48.3242 36.9332 48.7334C36.5998 49.545 36.5998 50.4552 36.9332 51.2668C37.0918 51.6759 37.3297 52.0497 37.6332 52.3667L47.6332 62.3667C48.2609 62.9944 49.1122 63.3471 49.9998 63.3471C50.8875 63.3471 51.7388 62.9944 52.3665 62.3667C52.9942 61.7391 53.3468 60.8878 53.3468 60.0001C53.3468 59.1124 52.9942 58.2611 52.3665 57.6334L48.0332 53.3334H59.9998C60.8839 53.3334 61.7317 52.9822 62.3569 52.3571C62.982 51.732 63.3332 50.8841 63.3332 50.0001C63.3332 49.116 62.982 48.2682 62.3569 47.6431C61.7317 47.0179 60.8839 46.6667 59.9998 46.6667H48.0332L52.3665 42.3667C52.6789 42.0569 52.9269 41.6882 53.0961 41.282C53.2654 40.8758 53.3525 40.4401 53.3525 40.0001C53.3525 39.56 53.2654 39.1244 53.0961 38.7182C52.9269 38.312 52.6789 37.9433 52.3665 37.6334C52.0566 37.321 51.688 37.073 51.2818 36.9038C50.8756 36.7345 50.4399 36.6474 49.9998 36.6474C49.5598 36.6474 49.1241 36.7345 48.7179 36.9038C48.3117 37.073 47.943 37.321 47.6332 37.6334L37.6332 47.6334ZM16.6665 50.0001C16.6665 56.5928 18.6215 63.0375 22.2842 68.5191C25.9469 74.0007 31.1529 78.2732 37.2437 80.7961C43.3346 83.319 50.0368 83.9791 56.5028 82.6929C62.9689 81.4068 68.9083 78.2321 73.5701 73.5703C78.2318 68.9086 81.4065 62.9691 82.6927 56.5031C83.9789 50.0371 83.3187 43.3348 80.7958 37.244C78.2729 31.1531 74.0005 25.9471 68.5188 22.2844C63.0372 18.6217 56.5925 16.6667 49.9998 16.6667C45.6224 16.6667 41.2879 17.5289 37.2437 19.2041C33.1995 20.8793 29.5249 23.3346 26.4296 26.4299C20.1784 32.6811 16.6665 41.1595 16.6665 50.0001ZM76.6665 50.0001C76.6665 55.2743 75.1025 60.43 72.1724 64.8153C69.2422 69.2006 65.0774 72.6185 60.2047 74.6369C55.332 76.6552 49.9703 77.1833 44.7974 76.1544C39.6246 75.1254 34.8731 72.5857 31.1437 68.8563C27.4143 65.1269 24.8745 60.3753 23.8456 55.2025C22.8166 50.0297 23.3447 44.6679 25.3631 39.7952C27.3814 34.9225 30.7993 30.7577 35.1846 27.8276C39.5699 24.8974 44.7257 23.3334 49.9998 23.3334C57.0723 23.3334 63.8551 26.1429 68.856 31.1439C73.857 36.1449 76.6665 42.9276 76.6665 50.0001Z"
    fill="#111213" />
</svg>
